<?xml version="1.0" encoding="UTF-8" standalone="no"?>
<!-- Created with Inkscape (http://www.inkscape.org/) -->

<svg
   width="210mm"
   height="297mm"
   viewBox="0 0 210 297"
   version="1.1"
   id="svg5"
   inkscape:version="1.1 (c68e22c387, 2021-05-23)"
   sodipodi:docname="icon.svg"
   xmlns:inkscape="http://www.inkscape.org/namespaces/inkscape"
   xmlns:sodipodi="http://sodipodi.sourceforge.net/DTD/sodipodi-0.dtd"
   xmlns="http://www.w3.org/2000/svg"
   xmlns:svg="http://www.w3.org/2000/svg">
  <sodipodi:namedview
     id="namedview7"
     pagecolor="#ffffff"
     bordercolor="#666666"
     borderopacity="1.0"
     inkscape:pageshadow="2"
     inkscape:pageopacity="0.0"
     inkscape:pagecheckerboard="0"
     inkscape:document-units="mm"
     showgrid="false"
     inkscape:zoom="0.47215208"
     inkscape:cx="397.11781"
     inkscape:cy="562.31882"
     inkscape:window-width="1366"
     inkscape:window-height="715"
     inkscape:window-x="-8"
     inkscape:window-y="-8"
     inkscape:window-maximized="1"
     inkscape:current-layer="layer1" />
  <defs
     id="defs2" />
  <g
     inkscape:label="圖層 1"
     inkscape:groupmode="layer"
     id="layer1">
    <path
       id="path2884"
       style="fill:#ffffff;fill-rule:evenodd;stroke:#000000;stroke-width:1.91673"
       inkscape:transform-center-x="-22.11268"
       inkscape:transform-center-y="44.209724"
       d="m 129.69816,171.82814 a 61.256342,25.80994 56.420649 0 1 3.78142,58.93515 61.256342,25.80994 56.420649 0 1 -56.6233,-46.29404 61.256342,25.80994 56.420649 0 1 -3.781417,-58.93514 61.256342,25.80994 56.420649 0 1 56.623297,46.29403 z" />
    <path
       style="fill:#ffffff;stroke-width:2.77299;stroke-miterlimit:4;stroke-dasharray:none"
       id="path6899"
       d="m 34.87222,61.439959 c 4.557446,6.484236 9.415852,12.748614 14.033402,19.191067 3.465608,4.707295 6.382557,9.771163 9.546953,14.674628 1.360776,2.096082 2.752304,4.192823 3.835627,6.449636 1.163027,3.20735 2.095834,6.49181 3.223898,9.71385 1.41083,4.63503 3.456704,9.04972 4.852553,13.68667 0.783151,-0.81484 1.566302,-1.62968 2.349455,-2.44452 0,0 -3.229237,2.12872 -3.229237,2.12872 v 0 c 1.409288,-0.50851 2.818578,-1.01701 4.227865,-1.52551 -1.609617,-4.56374 -3.529288,-9.01461 -4.922806,-13.65518 -1.107779,-3.25395 -1.981427,-6.57938 -3.134193,-9.815541 -1.103985,-2.267257 -2.534206,-4.359785 -3.938442,-6.448726 -3.26136,-4.851162 -6.242174,-9.889625 -9.773748,-14.559759 -4.659955,-6.385721 -9.491392,-12.661985 -13.74685,-19.33027 0,0 -3.324477,1.934935 -3.324477,1.934935 z" />
    <circle
       id="path6901"
       style="fill:#ffffff;stroke:#000000;stroke-width:0.264583"
       cx="65.564148"
       cy="119.92075"
       r="0.77618617" />
    <circle
       id="path6903"
       style="fill:#ffffff;stroke:#000000;stroke-width:0.264583"
       cx="65.564148"
       cy="119.92075"
       r="0.77618617" />
    <path
       style="fill:#000000;stroke-width:2.77299;stroke-miterlimit:4;stroke-dasharray:none"
       id="path8397"
       d="m 55.416362,92.832443 c 0.409879,2.749219 1.047358,5.44703 1.87784,8.097427 0.877986,2.64351 1.540055,5.3484 2.323685,8.01988 0.708925,2.40178 1.393328,4.46746 2.637007,6.67139 1.489683,2.43867 2.969403,4.89819 4.636143,7.22138 1.177914,1.47965 1.98955,3.14687 2.384441,4.98952 0.03029,0.11283 0.06059,0.22567 0.09088,0.3385 0,0 3.45159,-1.89339 3.45159,-1.89339 v 0 c -0.0359,-0.0975 -0.0718,-0.19495 -0.107704,-0.29243 -0.445302,-1.87899 -1.294106,-3.58827 -2.510949,-5.09683 -1.666525,-2.30531 -3.154669,-4.74349 -4.636256,-7.17015 -0.249979,-0.45375 -0.524116,-0.89501 -0.749938,-1.36126 -0.815769,-1.68429 -1.132348,-3.52389 -1.809319,-5.25783 -0.811612,-2.65988 -1.476044,-5.3611 -2.375857,-7.994487 -0.791777,-2.632025 -1.447435,-5.306047 -1.727311,-8.047035 0,0 -3.484256,1.775315 -3.484256,1.775315 z" />
    <path
       style="fill:#000000;stroke-width:2.77299;stroke-miterlimit:4;stroke-dasharray:none"
       id="path8439"
       d="m 45.006849,115.12991 c 1.222135,1.80343 2.690786,3.42846 4.152932,5.03824 2.185805,2.29152 4.959096,3.85811 7.727654,5.33122 1.734129,0.97067 3.687379,1.71981 4.949002,3.30843 0.640239,1.26598 1.298501,2.52992 1.844815,3.84109 0.07754,0.14517 0.155088,0.29034 0.232632,0.43551 0,0 3.398957,-1.95952 3.398957,-1.95952 v 0 c -0.07742,-0.12719 -0.154826,-0.25437 -0.232241,-0.38156 -0.565092,-1.34091 -1.220668,-2.6469 -1.90224,-3.93067 -0.434412,-0.55007 -0.592646,-0.8253 -1.177851,-1.24832 -1.201912,-0.86879 -2.637025,-1.42355 -3.914833,-2.16103 -2.757776,-1.41609 -5.477963,-2.96351 -7.642223,-5.22625 -1.437798,-1.57603 -2.869006,-3.19198 -4.025479,-4.98938 0,0 -3.411125,1.94224 -3.411125,1.94224 z" />
    <path
       style="fill:#000000;stroke-width:2.77299;stroke-miterlimit:4;stroke-dasharray:none"
       id="path8441"
       d="m 73.348436,93.392822 c 0.03719,2.188933 0.0222,4.378391 0.02143,6.567554 -0.0084,2.121334 -0.632468,4.146424 -1.068012,6.202434 -0.420415,2.59219 -0.696167,5.20904 -0.92328,7.82545 -0.181311,2.23553 -0.226724,4.48008 -0.261646,6.72197 -0.02154,1.47994 -0.0097,2.96004 -0.0074,4.44006 0.03837,1.74555 -0.97835,3.81212 3.057549,-0.6989 0.252722,-0.28248 -0.229262,-0.72256 -0.343895,-1.08383 0,0 -3.363706,1.84654 -3.363706,1.84654 v 0 c 0.160594,0.50372 -0.04355,1.57077 0.48178,1.51116 3.653089,-0.41455 3.652488,-1.26969 3.639547,-3.34438 -0.0026,-1.4767 -0.0016,-2.9534 -0.0016,-4.4301 0.01336,-2.22676 0.05231,-4.45481 0.233106,-6.67539 0.219725,-2.60824 0.516104,-5.21437 0.966583,-7.79314 0.446662,-2.07773 1.063321,-4.12645 1.032256,-6.275339 -7.93e-4,-2.196449 -0.01561,-4.393184 0.02143,-6.589406 0,0 -3.484256,1.775317 -3.484256,1.775317 z" />
    <path
       style="fill:#000000;stroke-width:2.77299;stroke-miterlimit:4;stroke-dasharray:none"
       id="path8445"
       d="m 58.373427,105.87635 c -0.216326,0.19314 -0.42655,0.39334 -0.648975,0.57942 -0.265025,0.22172 -0.534789,0.43817 -0.812742,0.64345 -0.281702,0.20805 -1.171252,0.76623 -0.86529,0.59586 4.996558,-2.78233 2.187133,-1.25473 1.277008,-0.9882 -0.421748,0.12351 -0.860954,0.17679 -1.291434,0.26519 -3.461339,0.35955 -5.067821,-0.93519 -6.890961,-3.71321 -1.267066,-2.3307 -1.316861,-4.967145 -1.572805,-7.53699 -0.501955,-2.462157 -1.715868,-2.74429 -3.937394,-3.305612 -1.522614,-0.406995 -3.211584,-0.796284 -4.471919,-1.814404 -0.236691,-0.191206 -0.424905,-0.435641 -0.63736,-0.653462 -1.24955,-1.986748 -2.094267,-4.341577 -2.105904,-6.712135 -0.0024,-0.485852 0.05921,-0.96991 0.08881,-1.454865 0.271352,-1.095959 0.471165,-2.458548 1.335323,-3.297261 0.187146,-0.181636 0.896197,-0.532458 0.681213,-0.384823 -2.727505,1.873049 -3.761187,1.660467 -2.091069,1.806929 2.294292,1.009502 2.231576,0.619025 5.185394,-1.848924 0.139274,-0.116364 0.256863,-1.786861 0.284906,-2.090864 0.0984,-3.619304 0.940883,-7.140033 2.163482,-10.530377 0.453237,-1.049295 0.95694,-2.109028 1.80851,-2.901233 0.183686,-0.170881 0.821597,-0.573686 0.603395,-0.449876 -3.063774,1.738389 -3.692234,1.649097 -2.085861,1.620154 1.622152,0.820494 1.456653,1.845514 3.572621,1.813595 1.314659,-0.129831 2.489618,-0.759804 3.762491,-1.063017 1.243283,-0.296164 2.116884,-0.391377 3.388252,-0.574606 1.363353,0.01704 3.084872,-0.340024 4.355692,0.39669 1.225852,0.710644 1.743467,2.278388 2.231776,3.490825 0.841558,2.700203 1.104641,5.562502 0.990907,8.38024 -0.102123,0.33531 -0.174918,0.680996 -0.306371,1.005928 -0.191307,0.47289 -0.710584,1.280112 -0.925267,1.742236 -0.512098,1.102326 -0.765627,2.149546 -0.937828,3.3455 -0.0815,2.767555 0.693414,5.483789 1.176472,8.19545 0.300728,1.972694 0.691904,3.921721 0.868098,5.911279 0.293613,1.817272 -0.274098,3.385087 -1.045512,4.984843 -0.323927,0.52911 -0.548865,0.93146 -0.936492,1.42099 -0.169704,0.21431 -0.783411,0.74705 -0.545537,0.61234 3.123306,-1.76872 3.459332,-1.39636 1.874636,-2.05928 0,0 -3.248617,2.12803 -3.248617,2.12803 v 0 c 0.285353,0.17523 0.537136,0.62776 0.856057,0.52568 3.056397,-0.97827 4.258032,-1.84982 5.543076,-4.240642 0.762553,-1.65444 1.227674,-3.316634 0.937464,-5.1615 -0.185195,-1.999165 -0.581692,-3.954949 -0.898586,-5.935866 -0.513136,-2.660647 -1.290357,-5.344573 -1.126051,-8.071538 0.215874,-1.166934 0.503727,-2.168168 1.016249,-3.242487 0.306146,-0.641726 0.652113,-1.136653 0.87994,-1.818116 0.117557,-0.351623 0.171069,-0.721506 0.256604,-1.08226 0.0506,-2.863035 -0.211011,-5.767755 -1.096285,-8.503004 -0.530088,-1.31735 -1.102149,-2.978028 -2.388333,-3.79235 -1.286769,-0.814694 -3.085457,-0.465264 -4.490897,-0.507066 -1.542892,0.204502 -3.132357,0.351068 -4.626068,0.817806 -1.993408,0.62288 0.25944,0.08856 -1.64697,0.608886 -0.257384,0.07025 -0.521835,0.111408 -0.782752,0.167111 -2.047819,0.319344 -1.96479,-0.860989 -3.524673,-1.754426 -2.188326,-0.483894 -0.729858,-0.333552 -4.711665,2.094764 -1.196811,0.72988 -1.689794,2.336165 -2.245633,3.507529 -1.166714,3.435265 -1.986812,6.99017 -2.166895,10.625301 -0.05777,0.401696 -0.08656,0.808638 -0.173326,1.205085 -0.05595,0.255635 -0.505783,0.81103 -0.25305,0.743159 1.106249,-0.297082 2.059546,-1.003226 3.089317,-1.504839 -0.120465,0.02024 -0.240556,0.07863 -0.361397,0.06075 -0.284308,-0.04207 -0.914688,-0.405963 -1.122397,-0.515093 -2.104588,-0.505098 -0.721346,-0.326001 -4.729435,1.863981 -1.333399,0.728554 -1.513303,2.688487 -1.812774,3.973343 -0.02212,0.500243 -0.07784,1.000131 -0.06633,1.500728 0.05652,2.457555 0.948994,4.874278 2.191494,6.96482 0.22825,0.244181 0.429596,0.51663 0.684749,0.732541 1.260893,1.066964 3.000507,1.498119 4.549571,1.917353 2.11251,0.495081 3.195339,0.558626 3.70481,2.8921 0.284562,2.6267 0.36059,5.31447 1.681504,7.68755 1.095618,1.65273 2.347095,3.28075 4.335605,3.91242 0.915543,0.29084 1.861672,0.19399 2.796852,0.17571 0.440124,-0.0656 0.887873,-0.0921 1.320372,-0.19677 2.929379,-0.70891 5.472488,-2.76308 7.712551,-4.71173 0,0 -3.624345,1.50126 -3.624345,1.50126 z" />
    <path
       style="fill:#000000;stroke-width:2.77299;stroke-miterlimit:4;stroke-dasharray:none"
       id="path8451"
       d="M 75.236159,100.00364 C 73.849486,98.678956 72.326695,97.538957 71.297233,95.900236 70.303693,94.148777 70.313959,92.13748 70.038409,90.204 c -0.31232,-1.299704 -1.504545,-1.269163 -2.609882,-1.426532 -0.186174,-0.07402 -0.404577,-0.09385 -0.558525,-0.222065 -1.035402,-0.862354 -1.388329,-3.166261 -1.608,-4.424916 0.21108,-2.43328 2.058954,-4.286982 3.825185,-5.800627 0.305205,-0.190582 1.224743,-0.755896 0.915614,-0.571748 -0.817409,0.486928 -1.66574,0.928002 -2.440575,1.480164 -0.234119,0.166838 0.53103,-0.221671 0.803447,-0.313516 0.245407,-0.08274 1.23312,-0.318458 1.469245,-0.450974 1.338553,-0.751213 2.629392,-1.584449 3.944088,-2.376673 1.222044,-2.702769 1.69246,-5.660686 2.53106,-8.492286 0.645165,-1.911416 1.582504,-3.780623 3.085163,-5.168418 0.329179,-0.304017 1.471253,-1.004398 1.059773,-0.827003 -0.755047,0.325514 -1.405988,0.852889 -2.108981,1.279334 1.867234,-0.764431 4.07339,-1.559893 6.035479,-0.618646 0.334751,0.160586 0.617006,0.413142 0.92551,0.619713 1.171337,0.594743 1.08267,2.433208 2.313744,2.898401 0.716206,0.270637 1.977507,0.03813 2.61601,-0.02148 2.341803,-0.216942 4.997069,-0.979913 7.223659,0.206473 1.112036,0.592524 1.448306,1.242986 2.185673,2.203823 0.723104,1.528022 1.562324,3.289909 1.270404,5.052719 -0.40278,2.432322 -2.331264,4.200316 -3.957925,5.850797 -0.697209,0.470638 -1.400233,0.932768 -2.091624,1.411912 -0.343723,0.238207 1.433735,-0.851649 1.04847,-0.688988 -0.690306,0.291452 -1.324446,0.702059 -1.97208,1.078942 -3.690419,2.147604 -4.852726,2.43101 -7.158284,5.217263 -1.681096,2.487395 -1.621594,5.481812 -1.70766,8.366561 0.08115,2.146734 -0.06662,4.23685 -0.915961,6.22447 -0.678593,1.12927 -3.167867,2.94199 1.694312,-0.52586 0.222319,-0.15856 -0.507796,0.20303 -0.769398,0.28135 -0.656905,0.19666 -1.008046,0.21518 -1.697979,0.30918 -1.716506,0.0876 -3.391009,0.089 -5.054666,0.55485 -1.208696,0.35247 -2.326169,0.93235 -3.505036,1.36777 0,0 -3.051024,2.37656 -3.051024,2.37656 v 0 c 1.195861,-0.38991 2.285285,-0.98429 3.480678,-1.37012 1.647494,-0.52726 3.295139,-0.58803 5.017879,-0.61239 2.802236,-0.27114 6.07193,-1.35575 7.413643,-4.01249 0.769464,-2.037921 0.893628,-4.152685 0.79797,-6.318517 0.08035,-2.825017 0.09325,-5.747329 1.818709,-8.132805 0.324178,-0.368493 0.618371,-0.765706 0.972534,-1.105482 0.406863,-0.390331 1.694013,-0.671396 1.303435,-1.078021 -0.405913,-0.422589 -2.049335,1.132893 -1.559258,0.811686 0.631365,-0.413805 1.3267,-0.720735 1.98478,-1.09058 5.878277,-3.303641 3.742227,-1.883818 7.391575,-4.498136 1.67371,-1.777172 3.50704,-3.592021 3.87094,-6.151907 0.26357,-1.85411 -0.57398,-3.661336 -1.34623,-5.268219 -0.7709,-1.012762 -1.16046,-1.733897 -2.31038,-2.387891 -2.242327,-1.275286 -4.919773,-0.5837 -7.310448,-0.347626 -0.503631,0.05286 -1.006271,0.116269 -1.5109,0.158594 -0.294624,0.02471 -0.596339,0.101891 -0.88596,0.04245 -0.964422,-0.19795 -1.350219,-2.335135 -2.348455,-2.877436 -0.329274,-0.233899 -0.630542,-0.513331 -0.987819,-0.701699 -2.01336,-1.0615 -4.248888,-0.381108 -6.235181,0.364046 -1.480326,0.854895 -2.994446,1.653775 -4.440973,2.564688 -2.135259,1.344626 -3.215127,3.949533 -4.035896,6.199259 -0.798952,2.782173 -1.180833,5.796372 -2.698385,8.297622 0.915178,-0.487818 1.849493,-0.941316 2.745536,-1.463448 0.216503,-0.126158 -0.461388,0.19802 -0.700804,0.271965 -0.254784,0.07869 -0.522306,0.110281 -0.77832,0.184873 -2.170594,0.632415 -4.072694,1.961306 -5.909857,3.250927 -1.789499,1.641591 -3.626676,3.604641 -3.67777,6.169411 0.274775,1.444805 0.677516,3.696184 1.774989,4.759595 0.166516,0.161343 0.411803,0.213204 0.617702,0.319807 0.374616,0.05214 0.74672,0.122367 1.122238,0.167537 0.673553,0.08101 1.056794,0.05842 1.246037,0.821849 0.320916,1.976853 0.303585,4.039952 1.350719,5.825619 1.098814,1.775071 2.511605,2.741879 3.948718,4.200899 0,0 3.337068,-2.04496 3.337068,-2.04496 z" />
    <path
       style="fill:#000000;stroke-width:2.77299;stroke-miterlimit:4;stroke-dasharray:none"
       id="path8459"
       d="m 53.068206,119.93487 c 1.130705,-1.99718 1.696717,-4.2595 2.110327,-6.50028 0.281816,-1.97099 0.343924,-3.96195 0.367776,-5.94973 -0.12697,-1.24026 -0.555926,-2.29997 -1.359312,-3.24133 0,0 -3.348056,2.0215 -3.348056,2.0215 v 0 c 0.766315,0.84902 1.145034,1.83558 1.241636,2.98109 -0.01796,1.96342 -0.06607,3.93365 -0.374144,5.87691 -0.424397,2.20679 -0.963523,4.47486 -2.249715,6.35481 0,0 3.611488,-1.54297 3.611488,-1.54297 z" />
    <path
       style="fill:#000000;stroke-width:2.77299;stroke-miterlimit:4;stroke-dasharray:none"
       id="path8465"
       d="m 50.283027,120.0651 c -0.53014,2.05931 -1.349565,4.03517 -2.649355,5.72325 -0.245993,0.21655 -0.476877,0.45157 -0.737975,0.64964 -0.242938,0.18429 -1.02887,0.65504 -0.769821,0.49418 0.816898,-0.50728 1.695598,-0.92899 2.443435,-1.53346 0.242458,-0.19599 -0.590423,0.2025 -0.892451,0.2798 -0.708358,0.18128 -1.125513,0.212 -1.844563,0.30322 -1.889562,0.0396 -3.436351,-0.84887 -4.728136,-2.15529 -1.157055,-1.71735 -0.675579,-2.49561 -3.056835,-2.67198 -1.642007,0.0578 -3.276401,0.23615 -4.917278,0.32655 -2.345259,0.11686 -3.093342,0.10698 -4.206208,-2.08631 -0.706245,-2.21796 -0.943888,-4.65581 -0.211879,-6.90657 0.126646,-0.3894 0.326104,-0.75124 0.489157,-1.12686 0.436327,-0.66275 0.622815,-1.06278 1.230428,-1.56691 0.220256,-0.18275 0.96601,-0.61429 0.723879,-0.46171 -4.132424,2.60398 -3.369042,1.47775 -1.818272,1.73441 1.077203,-0.76029 2.264386,-1.38482 3.23161,-2.28086 0.127884,-0.11847 -0.241263,-0.25187 -0.355838,-0.38326 -0.182959,-0.20981 -0.366384,-0.41965 -0.536495,-0.64 -0.700768,-0.90773 -1.189199,-1.88774 -1.678798,-2.91915 -0.323998,-0.9764 -1.500131,-3.46083 -1.104667,-4.48063 0.09874,-0.25461 0.323541,-0.440019 0.48531,-0.660025 0.298672,-0.197843 1.202258,-0.779442 0.896014,-0.593532 -0.733219,0.445114 -1.611403,0.726861 -2.177362,1.371397 -0.315929,0.3598 0.903083,-0.32146 1.365268,-0.44655 1.369986,-0.370778 2.723309,-0.470978 4.132387,-0.529745 0.851122,-0.0016 1.660046,0.09996 2.416122,0.502725 0.470289,0.25052 0.784042,0.50374 1.299049,0.65525 2.080646,-0.60028 0.353658,-0.0483 4.566009,-2.519701 0.247881,-0.145436 0.99667,-0.572608 0.751412,-0.422791 -0.841394,0.513977 -1.728547,0.955638 -2.540156,1.515465 -0.248066,0.171109 0.552968,-0.241133 0.837329,-0.3409 0.295278,-0.103595 0.599707,-0.178977 0.89956,-0.268467 0.808368,-0.236146 1.498322,-0.146016 2.289349,0.05857 0,0 3.21428,-2.193195 3.21428,-2.193195 v 0 c -0.832911,-0.289099 -1.54392,-0.447058 -2.429547,-0.228721 -2.336141,0.60222 -3.440147,1.463368 -5.897533,2.84953 -0.254423,0.143516 -1.009811,0.5876 -0.753864,0.446821 0.906743,-0.498737 1.781902,-1.056106 2.706529,-1.520849 0.16814,-0.08451 -0.282329,0.248885 -0.423495,0.37333 -0.551847,-0.02914 -0.781881,-0.27976 -1.260173,-0.553109 -0.570143,-0.325843 -0.808885,-0.435602 -1.49042,-0.54042 -0.35761,-0.055 -0.721415,-0.05658 -1.082122,-0.08487 -4.152643,0.130821 -7.629223,1.017651 -10.86914,4.044677 -0.137174,0.28166 -0.335659,0.54102 -0.411524,0.84498 -0.306533,1.22817 0.855703,3.47485 1.231954,4.61867 0.627644,1.32433 1.287412,2.55311 2.21108,3.69686 0.08842,0.10949 0.154612,0.36908 0.283589,0.31277 1.200001,-0.52385 2.280798,-1.28672 3.421197,-1.93008 -0.178533,-0.0431 -0.892979,-0.23036 -1.010777,-0.17847 -2.611454,1.15018 -4.569942,1.92631 -5.845989,4.3319 -1.09678,2.88251 -1.071206,5.39507 -0.143272,8.33506 1.117443,2.21678 1.969412,2.64257 4.431354,2.47473 1.633379,-0.0868 3.261622,-0.22741 4.891998,-0.35333 0.286763,0.001 1.05001,-0.0291 1.356175,0.0863 0.909484,0.34295 0.842129,1.75954 1.545725,2.33657 1.351796,1.38137 2.948691,2.36425 4.931039,2.44404 3.318537,-0.34913 6.080313,-1.57193 8.464198,-4.0439 1.251445,-1.78209 2.070518,-3.81332 2.62858,-5.91488 0,0 -3.530071,1.72583 -3.530071,1.72583 z" />
    <path
       style="fill:#000000;stroke-width:2.77299;stroke-miterlimit:4;stroke-dasharray:none"
       id="path8491"
       d="m 80.228145,157.99144 c -1.267224,1.97114 -2.548816,3.9307 -3.859064,5.87356 -1.655712,1.96365 -3.084134,4.09088 -4.623715,6.14156 -0.638427,0.8522 -1.174192,1.77269 -1.802419,2.63038 0,0 3.581659,-1.55566 3.581659,-1.55566 v 0 c 0.591395,-0.86899 1.148499,-1.76063 1.772447,-2.60765 1.509419,-2.06273 2.971702,-4.15446 4.583192,-6.14115 1.33087,-1.94335 2.549234,-3.96445 3.972245,-5.84229 0,0 -3.624345,1.50125 -3.624345,1.50125 z" />
    <path
       style="fill:#000000;stroke-width:2.77299;stroke-miterlimit:4;stroke-dasharray:none"
       id="path8499"
       d="m 106.72396,202.38667 c -1.02321,2.21056 -2.09191,4.37181 -3.30953,6.48283 -0.76488,1.25009 -1.21517,2.66367 -1.91135,3.94641 -0.30634,0.56445 -0.66814,1.09719 -0.98622,1.6551 -0.50512,1.00334 -0.943972,1.64218 -1.805781,2.34546 0,0 3.594041,-1.46886 3.594041,-1.46886 v 0 c 0.72327,-0.73115 1.28851,-1.52824 1.75228,-2.45421 1.05163,-1.82358 1.90374,-3.73289 2.88349,-5.59561 1.21216,-2.1356 2.22802,-4.35294 3.35938,-6.52915 0,0 -3.57631,1.61803 -3.57631,1.61803 z" />
    <path
       style="fill:#000000;stroke-width:2.77299;stroke-miterlimit:4;stroke-dasharray:none"
       id="path8505"
       d="m 136.43141,196.85919 c -0.76351,2.46067 -2.1012,4.66614 -3.5004,6.8096 -1.15293,1.67918 -2.02807,3.52898 -3.13943,5.23184 -0.19136,0.19576 -0.38273,0.39153 -0.57409,0.58729 0,0 3.58499,-1.50575 3.58499,-1.50575 v 0 c 0.181,-0.21535 0.362,-0.43069 0.54299,-0.64604 1.06016,-1.71833 1.9769,-3.52335 3.09266,-5.2085 1.39151,-2.19163 2.69477,-4.44475 3.55469,-6.905 0,0 -3.56141,1.63656 -3.56141,1.63656 z" />
    <path
       style="fill:#000000;fill-opacity:1;stroke-width:2.77299;stroke-miterlimit:4;stroke-dasharray:none"
       id="path9539"
       d="m 90.875315,181.52729 c -1.640645,1.84688 -3.057936,3.87556 -4.66022,5.75295 -1.363123,1.57878 -2.285109,3.46369 -3.442531,5.1881 -0.906529,1.13994 -1.701456,2.36256 -2.404496,3.63659 0,0 3.557439,-1.58869 3.557439,-1.58869 v 0 c 0.719185,-1.25445 1.518965,-2.45703 2.400265,-3.60428 1.123511,-1.72729 2.064459,-3.5829 3.435641,-5.13711 1.57924,-1.91574 3.015901,-3.95392 4.738246,-5.74881 0,0 -3.624344,1.50125 -3.624344,1.50125 z" />
    <path
       style="fill:#000000;fill-opacity:1;stroke-width:2.77299;stroke-miterlimit:4;stroke-dasharray:none"
       id="path9545"
       d="m 108.96547,148.03007 c -0.60386,1.57256 -1.26022,3.1218 -1.92407,4.67027 -0.84096,1.57116 -1.3034,3.27247 -2.14026,4.84228 -1.01424,1.59193 -2.22154,3.03918 -3.49163,4.42996 -0.22326,0.23619 -0.44651,0.47239 -0.66977,0.70858 0,0 3.57481,-1.4938 3.57481,-1.4938 v 0 c 0.22275,-0.23851 0.44551,-0.47702 0.66827,-0.71553 1.26839,-1.41059 2.4775,-2.88248 3.44755,-4.51887 0.80819,-1.587 1.31413,-3.29007 2.13698,-4.8728 0.66631,-1.55304 1.29289,-3.12288 1.97443,-4.66813 0,0 -3.57631,1.61804 -3.57631,1.61804 z" />
    <path
       style="fill:#000000;fill-opacity:1;stroke-width:2.77299;stroke-miterlimit:4;stroke-dasharray:none"
       id="path9547"
       d="m 123.46779,168.81934 c -0.75634,1.12948 -1.27171,2.40297 -2.02235,3.53531 -0.167,0.25192 -1.35418,1.80028 -1.55396,2.06217 -1.02256,1.36338 -1.96736,2.78139 -2.96891,4.15973 0,0 3.56229,-1.54365 3.56229,-1.54365 v 0 c 0.98077,-1.37882 1.92729,-2.78145 2.94048,-4.13721 1.35418,-1.80503 2.5103,-3.708 3.61968,-5.67095 0,0 -3.57723,1.5946 -3.57723,1.5946 z" />
  </g>
</svg>
